<?xml version="1.0" encoding="UTF-8" standalone="no"?>
<!-- Created with Inkscape (http://www.inkscape.org/) -->

<svg
   xmlns:dc="http://purl.org/dc/elements/1.1/"
   xmlns:cc="http://creativecommons.org/ns#"
   xmlns:rdf="http://www.w3.org/1999/02/22-rdf-syntax-ns#"
   xmlns:svg="http://www.w3.org/2000/svg"
   xmlns="http://www.w3.org/2000/svg"
   xmlns:xlink="http://www.w3.org/1999/xlink"
   xmlns:sodipodi="http://sodipodi.sourceforge.net/DTD/sodipodi-0.dtd"
   xmlns:inkscape="http://www.inkscape.org/namespaces/inkscape"
   id="svg3071"
   version="1.1"
   inkscape:version="0.48.3.1 r9886"
   width="1440"
   height="300"
   sodipodi:docname="bg-body.svg"
   inkscape:export-filename="/home/atom/IdeaProjects/JBlog/src/main/webapp/images/bg-body.jpg.png"
   inkscape:export-xdpi="90"
   inkscape:export-ydpi="90">
  <metadata
     id="metadata3077">
    <rdf:RDF>
      <cc:Work
         rdf:about="">
        <dc:format>image/svg+xml</dc:format>
        <dc:type
           rdf:resource="http://purl.org/dc/dcmitype/StillImage" />
        <dc:title />
      </cc:Work>
    </rdf:RDF>
  </metadata>
  <defs
     id="defs3075">
    <linearGradient
       id="linearGradient4157">
      <stop
         style="stop-color:#fdd136;stop-opacity:1;"
         offset="0"
         id="stop4159" />
      <stop
         style="stop-color:#f08005;stop-opacity:1;"
         offset="1"
         id="stop4161" />
    </linearGradient>
    <linearGradient
       inkscape:collect="always"
       xlink:href="#linearGradient4157"
       id="linearGradient4163"
       x1="762"
       y1="442"
       x2="764"
       y2="664"
       gradientUnits="userSpaceOnUse"
       gradientTransform="matrix(1.1450155,0,0,1.0023946,-146.92916,-443.4334)" />
  </defs>
  <sodipodi:namedview
     pagecolor="#ffffff"
     bordercolor="#666666"
     borderopacity="1"
     objecttolerance="10"
     gridtolerance="10"
     guidetolerance="10"
     inkscape:pageopacity="0"
     inkscape:pageshadow="2"
     inkscape:window-width="640"
     inkscape:window-height="480"
     id="namedview3073"
     showgrid="false"
     inkscape:zoom="0.5"
     inkscape:cx="1384.99"
     inkscape:cy="13.188636"
     inkscape:current-layer="svg3071"
     inkscape:snap-bbox="true"
     borderlayer="true"
     showguides="true"
     inkscape:guide-bbox="true" />
  <rect
     style="color:#000000;fill:url(#linearGradient4163);fill-opacity:1;stroke:none;stroke-width:0.98832679;marker:none;visibility:visible;display:inline;overflow:visible;enable-background:accumulate"
     id="rect4155"
     width="1440.4294"
     height="300.71835"
     x="-0.36718762"
     y="-0.37499905" />
  <path
     style="fill:#3e1d09;fill-opacity:1"
     d="m -0.09375,279.70091 0.03125,-18.33057 c 0.07941223,-2.91434 2.0447288,-2.82299 4.3125,-3.80054 7.154828,-3.0842 15.047496,-7.0754 19.25,-9.73442 8.549054,-5.40921 15.168985,-14.11359 16.144537,-21.22805 l 0.484229,-3.53136 c 0.08237,-0.58011 -0.101002,-0.91483 -0.722957,-1.12137 l -4.532228,-1.38952 C 31.918111,219.65897 22.978098,217.2154 15,215.16159 L 1.1000398,211.5833 c -0.68307919,-0.24907 -1.13374244,-0.55231 -1.13707178,-1.34079 l 0.0020572,-59.66664 -0.01345856,-60.575207 C 0.00982245,89.418648 0.39375334,89.323486 0.74216767,89.21727 L 6.742369,87.721089 C 21.017473,84.161517 39.055131,79.299838 40.121784,77.834242 42.078279,75.145991 37.310357,64.914895 31.628995,59.117797 25.380952,52.742474 11.547826,44.476375 2.1679688,41.663638 1.2484312,41.387896 -0.00257931,40.610928 -0.05967157,38.480087 -0.13117552,35.811362 -0.03731235,30.871517 -0.06296116,20.613859 -0.0796468,13.940816 -0.12403808,0.27137837 -0.12403808,0.27137837 c 0.005786,-0.31604653 0.19829585,-0.39357976 0.39128293,-0.3999869 L 46.448048,-0.36150912 c 0,0 30.826454,0.27849545 46.578965,0.34250485 2.837982,0.011532 5.582745,1.68113677 8.027647,3.10340197 9.57635,5.570822 29.31655,18.3972333 40.48916,34.3534743 4.58977,6.554913 5.22139,9.565956 6.38412,9.215347 3.42758,-1.033546 11.24848,-2.546434 25.57206,-4.946702 85.22177,-14.281004 160.49636,-8.075536 224.36904,18.496477 39.80297,16.558645 77.24492,46.724836 90.72764,73.097346 3.4069,6.66397 5.28661,15.4812 4.44047,20.82908 -1.89621,11.9847 -10.59851,25.61654 -26.47185,41.46719 -21.71194,21.68091 -46.75498,37.01321 -82.5653,50.5496 -5.775,2.18296 -12.075,4.36635 -14,4.85198 -1.925,0.48563 -7.55,2.05779 -12.5,3.49369 -15.88042,4.60662 -43.18297,9.2499 -67,11.39451 -10.89012,0.98061 -60.3593,0.68871 -70,-0.41305 -2.75,-0.31427 -11.15188,-1.21899 -18.67084,-2.01049 -7.51897,-0.7915 -16.51897,-2.07406 -20,-2.85015 -3.48104,-0.77609 -9.02916,-1.71599 -12.32916,-2.08869 -3.3,-0.37269 -9.72993,-1.53875 -14.28873,-2.59123 -4.55879,-1.05249 -8.47199,-1.91361 -8.69598,-1.91361 -0.22399,0 -2.03503,3.47444 -4.02452,7.72098 -1.9895,4.24653 -5.2604,9.75673 -7.26868,12.24489 -4.65258,5.76432 -13.0912,13.08166 -15.48661,14.57072 -4.56879,3.05804 -6.5878,3.67179 -9.78082,5.23335 -7.69488,3.86211 -10.805399,5.7771 -24.830278,6.36392 -8.197614,0.343 -20.124075,-0.0296 -38.874382,-0.0399 L 1.5344605,300.0886 c -0.70278799,-0.0165 -1.36930274,0.1923 -1.56655481,-0.024 -0.22253658,-0.24398 -0.03958329,-1.08725 -0.0325461,-1.70111 0,-6.08173 -0.02910959,-18.66262 -0.02910959,-18.66262 z M 333.8062,192.41444 C 351.9705,186.347 365,169.23729 365,151.45222 c 0,-17.91098 -9.62249,-33.15583 -26,-41.19162 -7.19556,-3.53058 -7.92622,-3.67996 -18,-3.67996 -10.06287,0 -10.82563,0.15543 -18.32178,3.73325 -17.35932,8.28539 -26.62742,24.05939 -25.42795,43.27749 0.66413,10.64072 4.21092,18.60568 12.05753,27.07743 11.15357,12.04217 29.28383,16.82776 44.4984,11.74563 z m 52.38444,105.73373 c 34.82253,-11.51324 72.64582,-30.58394 98.30936,-51.02787 19.89604,-15.84947 42.18793,-42.2826 49.53828,-58.74119 1.67757,-3.75635 3.42905,-7.52886 3.89217,-8.38337 0.46313,-0.85449 1.84769,-5.56615 3.07681,-10.47033 1.93167,-7.70736 2.17104,-10.75036 1.7649,-22.43637 -0.52144,-15.00346 -2.46417,-22.49704 -9.40312,-36.27021 C 521.68013,87.617424 497.21976,61.45315 469,41.965858 447.0291,26.793747 418.88359,13.012195 390.52746,3.5414906 l -8.98192,-3.28630604 c -0.86761,-0.23085782 -0.67143,-0.33697361 0.0555,-0.33102529 l 45.37555,0.02351661 44.86232,0.02160233 c 0.96248,0.241316 1.79432,0.7226049 2.66287,1.15989229 l 15.16644,7.6357738 c 8.8925,4.4770677 20.5925,10.7360217 26,13.9087887 11.58103,6.794995 34.90189,22.378023 38.55616,25.763271 1.40614,1.302625 4.17812,3.370132 6.15995,4.59446 1.98183,1.224327 3.94361,2.756008 4.35951,3.403734 0.41591,0.647726 2.55619,2.506976 4.75619,4.131669 9.437,6.969188 30.88265,29.834563 42.2308,45.026533 3.10323,4.15433 13.2692,21.88116 13.2692,23.13805 0,0.56774 0.7343,2.50357 1.63177,4.30185 5.10297,10.22487 5.73233,28.67698 1.27077,37.25721 -0.4964,0.95464 -0.90254,2.22891 -0.90254,2.83171 0,4.29307 -15.83917,30.26888 -24.84274,40.74142 -5.10326,5.93589 -23.35788,24.54981 -29.67562,30.25972 -12.15668,10.98709 -33.64335,26.73361 -48.98164,35.8962 -4.95,2.95698 -9.675,5.9062 -10.5,6.55384 -0.825,0.64764 -6.82945,3.93357 -13.34322,7.30206 l -10.53449,5.31073 c -1.35583,0.66122 -2.16237,0.96062 -3.51626,0.95999 l -51.40506,-0.0236 c -6.05999,-0.003 -41.81724,0.27994 -48.86755,0.0321 -1.55231,-0.0546 -1.34082,-1.16227 0.85722,-2.00652 z"
     id="path3081"
     inkscape:connector-curvature="0"
     sodipodi:nodetypes="sccssccsscccccsssssscccsssssssssssssssssssssccsscsccssssssssscscssssscccccssssssssssssssssccssscc" />
  <g
     inkscape:groupmode="layer"
     id="layer1"
     inkscape:label="bg"
     style="display:inline" />
  <g
     inkscape:groupmode="layer"
     id="layer2"
     inkscape:label="image"
     style="display:inline" />
  <path
     style="fill:#3e1d09;fill-opacity:1;stroke:none"
     d="M 593.46403,0.1026564 C 607.03631,10.171853 619.63501,19.013214 631.40625,30.75 c 27.03851,26.959365 45.14257,53.009384 54.3125,78.1875 5.18871,14.24687 6.48962,24.91711 5.8125,47.6875 -0.49681,16.70569 -1.09004,21.4705 -3.625,29.625 -3.45776,11.12339 -12.27046,29.26788 -19.375,39.875 -14.39044,21.48507 -40.36416,49.86362 -60.5,66.09375 -2.4799,1.99888 -4.3164,3.21714 -6.94757,5.20256 -3.60023,2.67797 -4.53794,3.18314 0.30781,2.70112 l 116.83267,-0.0428 c 2.31754,0.0159 3.10722,-0.47528 4.4591,-1.60647 16.24503,-13.70268 51.32296,-48.4765 59.91049,-59.69191 15.41799,-20.13608 29.31152,-44.19336 34.5625,-59.84375 2.61151,-7.78392 3.26135,-12.05134 3.34375,-21.78125 0.0561,-6.65431 -0.62449,-15.09012 -1.53125,-18.75 -4.10605,-16.57181 -18.49052,-43.585365 -32.5,-61.09375 C 773.31761,60.876911 749.79371,35.787435 736.9375,24.5 727.03385,15.80484 716.34083,9.4111257 704.84137,1.1307826 703.54998,0.3173257 702.7653,-0.04039926 701.22762,-0.03793314 L 593.51564,-0.05611825 c -0.26211,0.005038 -0.20883,0.06603235 -0.0516,0.15877465 z"
     id="path3107"
     inkscape:connector-curvature="0"
     sodipodi:nodetypes="cssscssccccscccsscccc" />
  <path
     style="fill:#3e1d09;fill-opacity:1;stroke:none"
     d="m 878.72827,42.127634 c 12.14384,17.30144 21.38054,34.237515 27.67798,51.528616 7.48716,20.55775 9.35203,36.01808 8.375,68.875 -0.71686,24.10576 -1.56097,30.95207 -5.21875,42.71875 -4.98949,16.05068 -17.71715,42.25681 -27.96875,57.5625 -7.3806,11.01926 -16.7838,23.38821 -27.21875,35.625 -1.92693,2.12072 -1.65308,1.67723 1.28125,1.6875 l 171.49995,0.0312 c 1.8304,0.0166 2.3661,-0.65024 3.375,-1.71875 7.0828,-7.50133 12.531,-13.28378 15.6876,-17.40625 22.248,-29.05535 42.2667,-63.7295 49.8437,-86.3125 3.7683,-11.23194 4.7254,-17.39756 4.8437,-31.4375 0.081,-9.60195 -0.9413,-21.78142 -2.25,-27.0625 -2.037,-8.22138 -5.8402,-18.22936 -10.7528,-28.84808 -0.6839,-1.27993 -1.8546,-2.04981 -3.6666,-2.28119 -83.8851,-10.716853 -155.56073,-33.724076 -203.94403,-64.183143 -1.77027,-0.917782 -2.10497,0.353578 -1.5645,1.221297 z"
     id="path3107-3"
     inkscape:connector-curvature="0"
     sodipodi:nodetypes="csssscccsscscccccc" />
  <path
     style="fill:#3e1d09;fill-opacity:1;stroke:none"
     d="m 1541.1875,9.46875 c -24.7343,26.756351 -47.3531,45.748909 -98.8751,63.319859 2.6243,5.5014 0.088,11.740869 -0.4558,17.62316 -1.7052,18.436421 -1.2546,39.200061 -2.2316,72.056981 -0.7168,24.10576 -1.5611,30.95207 -5.2188,42.71875 -4.9894,16.05068 -17.7171,42.25681 -27.9687,57.5625 -7.3806,11.01926 -16.7838,23.38821 -27.2187,35.625 -1.927,2.12072 -1.6531,1.70848 1.2812,1.71875 l 171.5,0 c 1.8303,0.0166 2.3661,-0.61899 3.375,-1.6875 7.0828,-7.50133 12.5309,-13.31503 15.6875,-17.4375 22.248,-29.05535 42.2667,-63.7295 49.8437,-86.3125 3.7683,-11.23194 4.7255,-17.36631 4.8438,-31.40625 0.081,-9.60195 -0.9414,-21.78142 -2.25,-27.0625 -5.9248,-23.91258 -26.6285,-62.92339 -46.8438,-88.1875 -9.39,-11.73528 -22.4268,-25.137794 -35.4687,-38.53125 z"
     id="path3107-3-9"
     inkscape:connector-curvature="0"
     sodipodi:nodetypes="ccsssscccsscscsc" />
</svg>
